HIERARCHY
ROOT Pelvis
{
	OFFSET 0.000000 0.000000 0.000000
	CHANNELS 6 Xposition Yposition Zposition Zrotation Yrotation Xrotation 
	JOINT Left_hip
	{
		OFFSET 0.068973 -0.091024 -0.007589
		CHANNELS 3 Zrotation Yrotation Xrotation
		JOINT Left_knee
		{
			OFFSET 0.036482 -0.391037 -0.003979
			CHANNELS 3 Zrotation Yrotation Xrotation
			JOINT Left_ankle
			{
				OFFSET -0.012239 -0.415469 -0.043440
				CHANNELS 3 Zrotation Yrotation Xrotation
				JOINT Left_foot
				{
					OFFSET 0.023806 -0.058558 0.118702
					CHANNELS 3 Zrotation Yrotation Xrotation
					End Site
					{
						OFFSET 0.000000 0.000000 0.000000
					}
				}
			}
		}
	}
	JOINT Right_hip
	{
		OFFSET -0.066552 -0.090468 -0.003847
		CHANNELS 3 Zrotation Yrotation Xrotation
		JOINT Right_knee
		{
			OFFSET -0.042435 -0.398340 -0.006400
			CHANNELS 3 Zrotation Yrotation Xrotation
			JOINT Right_ankle
			{
				OFFSET 0.014931 -0.415421 -0.041327
				CHANNELS 3 Zrotation Yrotation Xrotation
				JOINT Right_foot
				{
					OFFSET -0.021472 -0.049410 0.121889
					CHANNELS 3 Zrotation Yrotation Xrotation
					End Site
					{
						OFFSET 0.000000 0.000000 0.000000
					}
				}
			}
		}
	}
	JOINT Spine1
	{
		OFFSET -0.002904 0.105700 -0.022855
		CHANNELS 3 Zrotation Yrotation Xrotation
		JOINT Spine2
		{
			OFFSET 0.004179 0.132554 -0.002501
			CHANNELS 3 Zrotation Yrotation Xrotation
			JOINT Spine3
			{
				OFFSET 0.001987 0.049603 0.025988
				CHANNELS 3 Zrotation Yrotation Xrotation
				JOINT Neck
				{
					OFFSET -0.003935 0.211336 -0.045638
					CHANNELS 3 Zrotation Yrotation Xrotation
					JOINT Head
					{
						OFFSET 0.003906 0.065991 0.051018
						CHANNELS 3 Zrotation Yrotation Xrotation
						End Site
						{
							OFFSET 0.000000 0.000000 0.000000
						}
					}
				}
				JOINT Left_collar
				{
					OFFSET 0.072882 0.117751 -0.036270
					CHANNELS 3 Zrotation Yrotation Xrotation
					JOINT Left_shoulder
					{
						OFFSET 0.082118 0.032630 -0.005771
						CHANNELS 3 Zrotation Yrotation Xrotation
						JOINT Left_elbow
						{
							OFFSET 0.263305 -0.015144 -0.028095
							CHANNELS 3 Zrotation Yrotation Xrotation
							JOINT Left_wrist
							{
								OFFSET 0.250741 0.010115 -0.000759
								CHANNELS 3 Zrotation Yrotation Xrotation
								JOINT Left_palm
								{
									OFFSET 0.080683 -0.009989 -0.013613
									CHANNELS 3 Zrotation Yrotation Xrotation
									End Site
									{
										OFFSET 0.000000 0.000000 0.000000
									}
								}
							}
						}
					}
				}
				JOINT Right_collar
				{
					OFFSET -0.074811 0.116132 -0.040385
					CHANNELS 3 Zrotation Yrotation Xrotation
					JOINT Right_shoulder
					{
						OFFSET -0.085089 0.032943 -0.007484
						CHANNELS 3 Zrotation Yrotation Xrotation
						JOINT Right_elbow
						{
							OFFSET -0.254763 -0.014219 -0.020321
							CHANNELS 3 Zrotation Yrotation Xrotation
							JOINT Right_wrist
							{
								OFFSET -0.256597 0.009233 -0.005063
								CHANNELS 3 Zrotation Yrotation Xrotation
								JOINT Right_palm
								{
									OFFSET -0.080528 -0.007219 -0.010379
									CHANNELS 3 Zrotation Yrotation Xrotation
									End Site
									{
										OFFSET 0.000000 0.000000 0.000000
									}
								}
							}
						}
					}
				}
			}
		}
	}
}
MOTION
Frames: 9
Frame Time: 0.100000
-0.161127 -0.108674 0.512531 177.072730 4.660919 -21.063166 11.372810 14.296019 21.132742 -1.576558 -1.539633 -5.700281 -11.296906 24.176794 -0.791556 9.544455 -2.537598 -2.030102 -3.945962 -13.093330 4.789841 0.514672 -3.629447 4.676025 13.921220 -28.520333 2.040522 -20.696404 11.310870 -5.299195 3.476643 -1.169525 5.241662 -4.066353 -3.505687 2.812779 -0.175858 1.662725 4.591193 -5.010716 -32.826562 9.359867 18.883196 -21.251558 -17.986107 21.336699 -11.311276 -10.733296 7.118683 -0.532629 -18.042457 7.783021 -19.513494 -0.423797 28.000527 -19.212548 25.241881 0.854477 1.227010 -12.133814 -30.510365 18.493195 -15.601834 -8.200995 4.777375 -24.283671 3.734841 7.220768 9.973938 -21.249990 13.681123 36.150820 -1.764340 2.384659 -3.723008 
-0.130856 -0.115302 0.536391 177.176589 1.586234 -20.167085 14.031439 14.681994 21.709256 -0.903575 0.488619 -5.018601 -13.776476 25.012466 1.415261 11.283531 -3.849087 -2.428065 -1.800652 -12.322069 7.414431 1.843206 -2.642156 0.557084 12.666556 -27.126372 1.955351 -19.616599 11.247438 -3.209472 2.963739 -1.879181 3.398903 -3.316813 -5.467581 2.767500 0.018966 0.361415 4.007179 -3.381598 -32.495079 7.240285 19.656627 -21.236091 -18.196036 19.743276 -13.129934 -10.343945 7.401522 -0.712272 -17.621895 5.473113 -15.275429 -0.626810 26.800232 -19.471498 26.376816 -0.018041 0.924129 -13.674235 -28.817847 17.709796 -15.495558 -7.959647 3.999653 -23.323301 3.634580 7.494424 10.146604 -20.982405 13.617936 33.682232 -0.859878 2.344856 -3.706704 
-0.096344 -0.116390 0.555034 178.243267 -4.574669 -20.266308 16.395428 14.939508 22.247405 -0.025904 2.480488 -0.571736 -15.126819 26.800459 2.549844 11.808476 -4.502867 -3.234582 0.220255 -11.313108 9.943977 2.810426 0.235467 -1.831450 10.536355 -23.901269 1.120511 -16.293758 9.598524 -1.078917 2.744531 -2.085203 2.760808 -2.985903 -6.112650 3.328302 0.023193 0.011258 3.870317 -2.592677 -32.670796 7.672068 20.041103 -21.606794 -17.749866 18.358672 -13.059009 -9.845457 7.188407 0.146220 -16.515430 5.120522 -14.573621 0.996262 25.909780 -20.271056 28.751494 -0.547150 1.089513 -14.757200 -27.647342 17.460966 -15.131546 -7.975916 3.960505 -22.763914 4.149912 7.304902 12.905363 -20.718928 13.807730 33.364006 -0.313420 2.158612 -3.825319 
-0.062445 -0.117803 0.565009 -179.833190 -11.889764 -21.388953 17.906318 14.269656 19.870142 1.292389 3.820632 10.745826 -15.748670 28.644379 6.307297 12.123709 -4.236299 -5.909294 1.357421 -10.516822 13.052322 3.236215 4.368503 -3.838781 8.890532 -20.983473 1.744364 -14.446163 8.250817 -0.776125 2.212897 -1.347091 3.161917 -3.035636 -6.252372 3.688849 -0.025033 0.136004 4.174994 -3.176807 -29.511218 10.238316 18.703309 -18.951454 -14.125066 18.052683 -12.992071 -9.929721 7.308605 -0.149969 -16.696376 5.039317 -13.749643 0.208181 25.977936 -19.932889 28.660758 -1.561110 0.907989 -14.704673 -26.775106 17.076334 -14.542786 -7.419438 4.514246 -22.307828 3.981877 7.652889 13.239778 -21.202033 13.383746 31.862195 1.108074 2.179224 -4.379339 
-0.037721 -0.117913 0.569624 -177.735423 -17.638059 -23.830963 19.055717 11.810231 15.193081 1.021152 0.727052 25.512000 -14.912881 28.870561 12.370386 12.306055 -2.288853 -10.202499 1.015652 -10.343752 17.166723 3.558462 9.169442 -5.601265 7.517941 -19.565978 2.542428 -13.258704 7.603550 -1.537017 1.640285 -0.291963 4.444848 -3.460445 -6.399367 4.225420 -0.062466 -0.086683 5.412794 -3.119694 -20.477560 17.103455 15.768233 -9.211047 -5.474234 17.934410 -12.033926 -10.087525 8.396126 -1.564143 -18.057230 7.898105 -18.051298 -1.292825 28.750583 -20.379334 27.193846 -2.563820 0.683369 -13.734296 -26.660932 14.606615 -12.619830 -8.035281 2.947435 -21.573972 3.216031 9.470565 13.541957 -22.890311 13.985469 31.032025 2.599237 1.995085 -4.601534 
-0.024208 -0.118711 0.570943 -175.485376 -22.598373 -25.421187 18.225289 10.026420 11.867288 -1.872869 -4.302737 32.053846 -12.887097 26.034475 8.111734 9.787976 -0.893877 -9.504773 0.976494 -9.931208 17.960543 2.761122 12.953487 -4.778825 8.116650 -19.530659 2.634263 -12.697258 8.140221 -2.618005 0.584318 0.104052 5.700554 -3.168165 -6.721922 4.766947 0.175499 -0.694700 7.112045 -1.276320 -13.937545 22.890750 14.402563 -1.953662 -1.596069 19.246679 -9.897256 -10.372598 10.365945 -2.136173 -19.547706 10.439460 -21.482253 -2.580510 31.882399 -19.436035 24.299410 -2.366906 0.649126 -12.461135 -27.696746 11.255682 -12.225402 -9.935212 2.462393 -22.512676 2.695415 7.377206 10.980086 -24.018458 12.566422 29.176467 3.202053 2.070913 -4.310040 
-0.016877 -0.121316 0.575102 -173.708660 -28.096781 -23.968455 16.756622 11.027420 12.548595 -0.354566 -2.563494 18.243648 -13.512060 26.772372 6.267967 11.230168 -1.755496 -7.041766 1.952020 -8.596955 15.082323 1.800331 14.486747 -3.712604 11.182207 -18.979091 1.958224 -16.068492 9.663674 -3.606518 0.481205 -0.511211 5.359772 -2.989051 -6.936334 3.673951 0.539775 -0.650689 6.697888 0.139997 -10.242710 18.749248 14.139301 0.263828 -3.479710 20.828193 -11.279970 -11.791421 11.177320 -2.333720 -19.432990 8.464579 -18.882972 -2.677428 30.750608 -20.369547 25.941093 -2.358133 0.549389 -13.679403 -28.959913 11.209785 -12.732824 -9.870625 3.345398 -21.759420 3.597776 7.253019 12.334210 -22.237061 12.883663 29.097915 2.914888 1.831576 -4.949003 
-0.015147 -0.120869 0.585036 -174.061488 -30.948559 -22.385497 16.899044 14.657739 14.604227 0.306302 7.609549 8.056374 -13.128797 30.509807 6.707702 12.518274 -2.885226 -5.237520 2.630238 -7.739365 14.317150 2.129351 14.551206 -4.191607 11.551711 -17.295971 1.181943 -16.244145 10.292684 -2.726108 1.381378 -1.929488 3.399449 -2.494021 -7.896258 3.618719 0.573952 -1.237273 6.212248 0.061931 -8.309573 17.110276 12.716501 1.886001 -3.075496 20.320170 -13.931064 -11.933855 10.410432 -2.836494 -18.675204 7.844080 -18.133817 -2.754206 31.017722 -21.431087 27.715464 -3.232027 0.347392 -15.661762 -28.616713 12.622880 -12.679993 -10.658935 5.729413 -21.856406 4.265942 7.546649 13.819572 -22.308038 14.105384 29.905402 3.295642 1.644247 -6.018944 
-0.016728 -0.120121 0.593556 -175.289615 -30.330721 -21.105250 17.413444 17.215675 16.146314 0.372093 10.379970 3.584826 -13.095059 30.231216 5.352884 12.545737 -3.060174 -4.096095 3.227877 -7.904896 14.094678 2.147928 13.909876 -4.443037 11.549151 -17.178011 0.317010 -15.756733 10.866705 -1.994666 1.767292 -3.130911 2.634152 -2.106866 -8.800487 3.619345 0.684787 -2.104562 6.121599 0.784627 -5.651647 16.806465 11.326957 4.688883 -2.471405 19.582544 -14.862308 -11.762129 10.356052 -3.238600 -18.305920 7.557377 -19.603755 -0.232505 30.566313 -22.144048 29.824416 -3.480457 0.152949 -16.909481 -27.955071 12.199432 -12.642450 -11.146525 6.286019 -22.141395 4.474622 7.193727 13.711548 -22.020804 14.272244 29.735975 3.613987 1.610946 -6.117603 
